# xmcd CD database file
#
# Track frame offsets:
#	150
#	23325
#	47052
#	72979
#	98079
#	124087
#	149999
#	176192
#	200111
#	224254
#	246327
#	268642
#	287499
#	313100
#
# Disc length: 4265 seconds
#
# Revision: 0
# Processed by: cddbd v1.5.1PL2 Copyright (c) Steve Scherf et al.
# Submitted via: CDex 1.50
#
DISCID=df10a70e
DTITLE=La Vida New Orleans Band - La Vida's back in town
DYEAR=2003
DGENRE=Jazz
TTITLE0=Bogalousa Strut
TTITLE1=St. James Infirmary
TTITLE2=Buddy Bolden Blues
TTITLE3=Sultrry Serenade
TTITLE4=Afromotiv In Blue
TTITLE5=Bugle Boy March
TTITLE6=I'm gonna sit right down
TTITLE7=Beale Street Blues
TTITLE8=Blue Fonk
TTITLE9=Things ain't what 
TTITLE10=Tin Roof Blues
TTITLE11=Sweet Georgia Brown
TTITLE12=Mardi Grass in New Orleans
TTITLE13=La Vida's Back in Town
EXTD=YEAR: 2003
EXTT0=
EXTT1=
EXTT2=
EXTT3=
EXTT4=
EXTT5=
EXTT6=
EXTT7=
EXTT8=
EXTT9=
EXTT10=
EXTT11=
EXTT12=
EXTT13=
PLAYORDER=
